<?xml version="1.0" encoding="utf-8"?>
<!-- Generator: Adobe Illustrator 26.0.0, SVG Export Plug-In . SVG Version: 6.00 Build 0)  -->
<svg version="1.1" id="Layer_1" xmlns="http://www.w3.org/2000/svg" xmlns:xlink="http://www.w3.org/1999/xlink" x="0px" y="0px"
	 viewBox="0 0 170.1 170.1" style="enable-background:new 0 0 170.1 170.1;" xml:space="preserve">
<style type="text/css">
	.st0{fill:#8980FE;}
</style>
<path class="st0" d="M55.5,54.2c-4.1,0-7,0.4-8.4,0.8v26.8c1.8,0.4,3.9,0.5,6.8,0.5c10.9,0,17.7-5.5,17.7-14.8
	C71.5,59.1,65.8,54.2,55.5,54.2"/>
<path class="st0" d="M114.5,131.4c-8.6,0-16.3-1.9-21.3-4.6l3.6-14.7c3.8,2.3,11.6,5,17.6,5c6.2,0,8.8-2.2,8.8-5.5
	c0-3.4-2-5-9.7-7.5c-13.7-4.6-18.9-12-18.8-19.8c0-12.2,10.5-21.5,26.8-21.5c7.7,0,14.6,1.7,18.6,3.8l-3.6,14.2
	c-3-1.6-8.6-3.8-14.3-3.8c-5,0-7.8,2-7.8,5.4c0,3.1,2.5,4.7,10.6,7.6c12.5,4.3,17.8,10.6,17.9,20.3
	C143.1,122.4,133.3,131.4,114.5,131.4 M83.8,88.5C76.9,95.1,66.5,98,54.4,98c-2.7,0-5.1-0.1-7-0.4v32.5H27.1V40.6
	c6.3-1.1,15.2-1.9,27.7-1.9c12.7,0,21.7,2.4,27.7,7.3c5.8,4.6,9.7,12.1,9.7,21C92.2,75.8,89.3,83.4,83.8,88.5 M0,170.1h170.1V0H0
	V170.1z"/>
</svg>
