<?xml version="1.0" encoding="utf-8"?>
<!-- Generator: Adobe Illustrator 26.0.0, SVG Export Plug-In . SVG Version: 6.00 Build 0)  -->
<svg version="1.1" id="Layer_1" xmlns="http://www.w3.org/2000/svg" xmlns:xlink="http://www.w3.org/1999/xlink" x="0px" y="0px"
	 viewBox="0 0 60 60" style="enable-background:new 0 0 60 60;" xml:space="preserve">
<style type="text/css">
	.st0{fill:#8980FE;}
</style>
<path class="st0" d="M44.2,27.3c-2.9,0-4,2.6-4.2,4.4h7.9C47.9,30,47.2,27.3,44.2,27.3"/>
<path class="st0" d="M21.3,20.2h-0.1c-0.4,1.8-0.9,4-1.3,5.7L18,32.2h6.6L22.7,26C22.2,24.2,21.7,21.9,21.3,20.2"/>
<path class="st0" d="M53.9,36.3l-13.9,0c0.2,2.8,3,4.2,6.1,4.2c2.3,0,4.2-0.3,6-0.9l0.9,4.5c-2.2,0.9-4.9,1.4-7.8,1.4
	c-7.3,0-11.5-4.2-11.5-11c0-5.5,3.4-11.5,10.9-11.5c7,0,9.6,5.4,9.6,10.8C54.1,34.7,54,35.7,53.9,36.3 M27.9,44.9l-2.3-7.6H17
	L15,44.9H8l9.1-29.7h8.8l9.3,29.7H27.9z M0.1,60h60V0h-60C0.1,0,0.1,60,0.1,60z"/>
</svg>
