<?xml version="1.0" encoding="utf-8"?>
<!-- Generator: Adobe Illustrator 26.0.0, SVG Export Plug-In . SVG Version: 6.00 Build 0)  -->
<svg version="1.1" id="Layer_1" xmlns="http://www.w3.org/2000/svg" xmlns:xlink="http://www.w3.org/1999/xlink" x="0px" y="0px"
	 viewBox="0 0 60 60" style="enable-background:new 0 0 60 60;" xml:space="preserve">
<style type="text/css">
	.st0{fill:#797AB9;}
	.st1{fill:#8980FE;}
</style>
<path class="st0" d="M24.8,20.2c-0.5,1.9-3.3,12.7-3.3,12.7h7C28.4,32.9,25.3,22,24.8,20.2L24.8,20.2z"/>
<path class="st1" d="M45.8,20.8c-2.2,0-3.7-1.6-3.7-3.5c0-2.1,1.5-3.6,3.7-3.6s3.7,1.5,3.8,3.6C49.6,19.2,48.1,20.8,45.8,20.8
	 M49.4,46.4h-7.1V23.6h7.1V46.4z M31.9,46.4l-2.4-8.1h-9l-2.2,8.1h-7.4l9.6-31.4h9.3l9.7,31.4H31.9z M0.2,60h60V0h-60
	C0.2,0,0.2,60,0.2,60z"/>
</svg>
