<?xml version="1.0" encoding="utf-8"?>
<!-- Generator: Adobe Illustrator 26.0.0, SVG Export Plug-In . SVG Version: 6.00 Build 0)  -->
<svg version="1.1" id="Layer_1" xmlns="http://www.w3.org/2000/svg" xmlns:xlink="http://www.w3.org/1999/xlink" x="0px" y="0px"
	 viewBox="0 0 59 59" style="enable-background:new 0 0 59 59;" xml:space="preserve">
<style type="text/css">
	.st0{fill:#8980FE;}
</style>
<g>
	<g>
		<path class="st0" d="M9.9,18c2.1,1.7,4,3.3,6,4.9c4.3,3.5,8.6,7,12.9,10.4c0.6,0.5,1,0.5,1.7,0c6.1-5,12.3-9.9,18.4-14.9
			c0.1-0.1,0.2-0.2,0.4-0.3c0.1,0.2,0.1,0.4,0.1,0.5c0,7.8,0,15.6,0,23.5c0,0.5-0.1,0.5-0.5,0.5c-12.8,0-25.6,0-38.4,0
			c-0.4,0-0.6,0-0.6-0.5c0-7.8,0-15.7,0-23.5C9.9,18.4,9.9,18.3,9.9,18z"/>
	</g>
	<g>
		<path class="st0" d="M11.8,17c11.9,0,23.8,0,35.7,0c-1,0.8-1.9,1.6-2.8,2.3c-4.9,4-9.8,7.9-14.6,11.9c-0.3,0.2-0.5,0.3-0.8,0
			c-5.7-4.6-11.4-9.3-17.1-13.9C12,17.2,11.9,17.1,11.8,17z"/>
	</g>
</g>
<g>
	<path class="st0" d="M0,0.1v59h59v-59C59,0.1,0,0.1,0,0.1z M51.4,43.2c0,1.1-0.3,1.4-1.4,1.4H9.4c-1.1,0-1.4-0.3-1.4-1.4V16.4
		C8,15.3,8.3,15,9.3,15c6.8,0,13.6,0,20.4,0v0H50c1.1,0,1.3,0.3,1.3,1.3C51.4,16.3,51.4,43.2,51.4,43.2z"/>
</g>
</svg>
