<?xml version="1.0" encoding="utf-8"?>
<!-- Generator: Adobe Illustrator 26.0.0, SVG Export Plug-In . SVG Version: 6.00 Build 0)  -->
<svg version="1.1" id="Layer_1" xmlns="http://www.w3.org/2000/svg" xmlns:xlink="http://www.w3.org/1999/xlink" x="0px" y="0px"
	 viewBox="0 0 60 60" style="enable-background:new 0 0 60 60;" xml:space="preserve">
<style type="text/css">
	.st0{fill:#8980FE;}
</style>
<path class="st0" d="M35.4,28.5c-3.1,0-4.8,2.8-4.8,6.3c0,3.8,1.9,6.1,4.7,6.1c2,0,3.6-1.4,4-3.3c0.1-0.5,0.2-1,0.2-1.6v-2.9
	c0-0.4,0-0.9-0.1-1.2C39,30,37.5,28.5,35.4,28.5"/>
<path class="st0" d="M40.5,45.9l-0.3-3.3h-0.1c-1.4,2.5-4.1,3.8-6.9,3.8c-5.3,0-9.5-4.5-9.5-11.4c-0.1-7.5,4.6-11.8,9.9-11.8
	c2.7,0,4.9,1,5.9,2.5h0.1v-12h6.9v25.6c0,2.5,0.1,5.2,0.2,6.6H40.5z M20.6,45.9h-6.9V15.3h6.9V45.9L20.6,45.9z M0.1,60h60V0h-60
	C0.1,0,0.1,60,0.1,60z"/>
</svg>
