<?xml version="1.0" encoding="utf-8"?>
<!-- Generator: Adobe Illustrator 26.0.0, SVG Export Plug-In . SVG Version: 6.00 Build 0)  -->
<svg version="1.1" id="Layer_1" xmlns="http://www.w3.org/2000/svg" xmlns:xlink="http://www.w3.org/1999/xlink" x="0px" y="0px"
	 viewBox="0 0 60 60" style="enable-background:new 0 0 60 60;" xml:space="preserve">
<style type="text/css">
	.st0{fill:#8980FE;}
</style>
<path class="st0" d="M51.1,29c-0.6-0.1-1.1-0.2-1.8-0.2c-2.5,0-4.2,1.3-4.6,3.4c-0.1,0.4-0.1,0.9-0.1,1.5v10.9h-6.7l0-14.5
	c0-3.2,0-5.2-0.2-7.1h5.7l0.3,4h0.2c1.1-3.2,3.7-4.5,5.8-4.5c0.6,0,0.9,0,1.4,0.1L51.1,29L51.1,29z M31.5,31
	c-2.3,2.1-5.7,3.1-9.7,3.1c-0.9,0-1.7,0-2.3-0.2v10.7h-6.7V15.3c2.1-0.4,5-0.6,9.1-0.6c4.1,0,7.1,0.8,9.1,2.4
	c1.9,1.5,3.1,3.9,3.1,6.8C34.2,26.9,33.3,29.4,31.5,31 M0,60h60V0H0C0,0,0,60,0,60z"/>
<path class="st0" d="M22.3,19.8c-1.4,0-2.3,0.1-2.8,0.2v8.8c0.6,0.1,1.3,0.2,2.2,0.2c3.6,0,5.8-1.8,5.8-4.8
	C27.5,21.5,25.7,19.8,22.3,19.8"/>
</svg>
